<mxfile host="Electron" agent="Mozilla/5.0 (Windows NT 10.0; Win64; x64) AppleWebKit/537.36 (KHTML, like Gecko) draw.io/27.0.9 Chrome/134.0.6998.205 Electron/35.4.0 Safari/537.36" version="27.0.9">
  <diagram name="Страница — 1" id="SAPUwV6js8_9xhBfGVLV">
    <mxGraphModel dx="1426" dy="2010" grid="1" gridSize="10" guides="1" tooltips="1" connect="1" arrows="1" fold="1" page="1" pageScale="1" pageWidth="827" pageHeight="1169" math="0" shadow="0">
      <root>
        <mxCell id="0" />
        <mxCell id="1" parent="0" />
        <mxCell id="8m5L8EQ1R43HJl12Fjjr-10" value="Клиент" style="image;sketch=0;aspect=fixed;html=1;points=[];align=center;fontSize=12;image=img/lib/mscae/Person.svg;" vertex="1" parent="1">
          <mxGeometry x="80" y="60" width="37" height="50" as="geometry" />
        </mxCell>
        <mxCell id="8m5L8EQ1R43HJl12Fjjr-11" value="Оператор&lt;div&gt;колл центр&lt;/div&gt;" style="image;sketch=0;aspect=fixed;html=1;points=[];align=center;fontSize=12;image=img/lib/mscae/Person.svg;" vertex="1" parent="1">
          <mxGeometry x="80" y="330" width="37" height="50" as="geometry" />
        </mxCell>
        <mxCell id="8m5L8EQ1R43HJl12Fjjr-12" value="Менеджер&lt;div&gt;фронт офис&lt;/div&gt;&lt;div&gt;&lt;br&gt;&lt;/div&gt;" style="image;sketch=0;aspect=fixed;html=1;points=[];align=center;fontSize=12;image=img/lib/mscae/Person.svg;" vertex="1" parent="1">
          <mxGeometry x="80" y="450" width="37" height="50" as="geometry" />
        </mxCell>
        <mxCell id="8m5L8EQ1R43HJl12Fjjr-13" value="Бэк офис&lt;div&gt;(депозиты)&lt;/div&gt;" style="image;sketch=0;aspect=fixed;html=1;points=[];align=center;fontSize=12;image=img/lib/mscae/Person.svg;" vertex="1" parent="1">
          <mxGeometry x="80" y="170" width="37" height="50" as="geometry" />
        </mxCell>
        <mxCell id="8m5L8EQ1R43HJl12Fjjr-14" value="Бэк офис&amp;nbsp;&lt;div&gt;(кредиты)&lt;/div&gt;" style="image;sketch=0;aspect=fixed;html=1;points=[];align=center;fontSize=12;image=img/lib/mscae/Person.svg;" vertex="1" parent="1">
          <mxGeometry x="80" y="560" width="37" height="50" as="geometry" />
        </mxCell>
        <mxCell id="8m5L8EQ1R43HJl12Fjjr-15" value="Интернет&lt;div&gt;банк&lt;/div&gt;" style="rounded=1;whiteSpace=wrap;html=1;fillColor=#dae8fc;strokeColor=#6c8ebf;shadow=1;glass=1;fontStyle=1" vertex="1" parent="1">
          <mxGeometry x="340" y="10" width="120" height="60" as="geometry" />
        </mxCell>
        <mxCell id="8m5L8EQ1R43HJl12Fjjr-17" value="Сайт" style="rounded=1;whiteSpace=wrap;html=1;fillColor=#dae8fc;strokeColor=#6c8ebf;shadow=1;glass=1;fontStyle=1" vertex="1" parent="1">
          <mxGeometry x="340" y="90" width="120" height="60" as="geometry" />
        </mxCell>
        <mxCell id="8m5L8EQ1R43HJl12Fjjr-21" value="" style="endArrow=classic;html=1;rounded=0;exitX=1;exitY=0.604;exitDx=0;exitDy=0;exitPerimeter=0;entryX=-0.005;entryY=0.407;entryDx=0;entryDy=0;entryPerimeter=0;" edge="1" parent="1" source="8m5L8EQ1R43HJl12Fjjr-10" target="8m5L8EQ1R43HJl12Fjjr-15">
          <mxGeometry width="50" height="50" relative="1" as="geometry">
            <mxPoint x="420" y="150" as="sourcePoint" />
            <mxPoint x="470" y="100" as="targetPoint" />
          </mxGeometry>
        </mxCell>
        <mxCell id="8m5L8EQ1R43HJl12Fjjr-24" value="заявка&amp;nbsp;&lt;div&gt;на депозит&lt;/div&gt;" style="edgeLabel;html=1;align=center;verticalAlign=middle;resizable=0;points=[];" vertex="1" connectable="0" parent="8m5L8EQ1R43HJl12Fjjr-21">
          <mxGeometry x="-0.0039" y="-2" relative="1" as="geometry">
            <mxPoint as="offset" />
          </mxGeometry>
        </mxCell>
        <mxCell id="8m5L8EQ1R43HJl12Fjjr-22" value="" style="endArrow=classic;html=1;rounded=0;exitX=0.997;exitY=0.728;exitDx=0;exitDy=0;exitPerimeter=0;entryX=0;entryY=0.5;entryDx=0;entryDy=0;" edge="1" parent="1" source="8m5L8EQ1R43HJl12Fjjr-10" target="8m5L8EQ1R43HJl12Fjjr-17">
          <mxGeometry width="50" height="50" relative="1" as="geometry">
            <mxPoint x="220" y="115" as="sourcePoint" />
            <mxPoint x="431" y="70" as="targetPoint" />
          </mxGeometry>
        </mxCell>
        <mxCell id="8m5L8EQ1R43HJl12Fjjr-25" value="отправка&amp;nbsp;&lt;div&gt;заявки&lt;/div&gt;" style="edgeLabel;html=1;align=center;verticalAlign=middle;resizable=0;points=[];" vertex="1" connectable="0" parent="8m5L8EQ1R43HJl12Fjjr-22">
          <mxGeometry x="-0.0099" y="-2" relative="1" as="geometry">
            <mxPoint x="-7" as="offset" />
          </mxGeometry>
        </mxCell>
        <mxCell id="8m5L8EQ1R43HJl12Fjjr-26" value="АБС" style="rounded=1;whiteSpace=wrap;html=1;fillColor=#dae8fc;strokeColor=#6c8ebf;shadow=1;glass=1;fontStyle=1" vertex="1" parent="1">
          <mxGeometry x="590" y="420" width="120" height="60" as="geometry" />
        </mxCell>
        <mxCell id="8m5L8EQ1R43HJl12Fjjr-27" value="" style="endArrow=classic;html=1;rounded=0;exitX=1;exitY=0.5;exitDx=0;exitDy=0;entryX=0.644;entryY=-0.011;entryDx=0;entryDy=0;entryPerimeter=0;" edge="1" parent="1" source="8m5L8EQ1R43HJl12Fjjr-15" target="8m5L8EQ1R43HJl12Fjjr-26">
          <mxGeometry width="50" height="50" relative="1" as="geometry">
            <mxPoint x="300" y="95" as="sourcePoint" />
            <mxPoint x="511" y="50" as="targetPoint" />
          </mxGeometry>
        </mxCell>
        <mxCell id="8m5L8EQ1R43HJl12Fjjr-28" value="заявка&amp;nbsp;&lt;div&gt;на депозит&lt;/div&gt;" style="edgeLabel;html=1;align=center;verticalAlign=middle;resizable=0;points=[];" vertex="1" connectable="0" parent="8m5L8EQ1R43HJl12Fjjr-27">
          <mxGeometry x="-0.0039" y="-2" relative="1" as="geometry">
            <mxPoint as="offset" />
          </mxGeometry>
        </mxCell>
        <mxCell id="8m5L8EQ1R43HJl12Fjjr-29" value="Почта" style="rounded=1;whiteSpace=wrap;html=1;fillColor=#dae8fc;strokeColor=#6c8ebf;shadow=1;glass=1;fontStyle=1" vertex="1" parent="1">
          <mxGeometry x="340" y="350" width="120" height="60" as="geometry" />
        </mxCell>
        <mxCell id="8m5L8EQ1R43HJl12Fjjr-30" value="Excel&lt;div&gt;(депозиты)&lt;/div&gt;" style="rounded=1;whiteSpace=wrap;html=1;fillColor=#dae8fc;strokeColor=#6c8ebf;shadow=1;glass=1;fontStyle=1" vertex="1" parent="1">
          <mxGeometry x="340" y="180" width="120" height="60" as="geometry" />
        </mxCell>
        <mxCell id="8m5L8EQ1R43HJl12Fjjr-31" value="" style="endArrow=classic;html=1;rounded=0;exitX=0.967;exitY=0.704;exitDx=0;exitDy=0;exitPerimeter=0;entryX=0.006;entryY=0.439;entryDx=0;entryDy=0;entryPerimeter=0;" edge="1" parent="1" source="8m5L8EQ1R43HJl12Fjjr-13" target="8m5L8EQ1R43HJl12Fjjr-30">
          <mxGeometry width="50" height="50" relative="1" as="geometry">
            <mxPoint x="125.22299999999996" y="220.45000000000005" as="sourcePoint" />
            <mxPoint x="339" y="220.0000000000001" as="targetPoint" />
          </mxGeometry>
        </mxCell>
        <mxCell id="8m5L8EQ1R43HJl12Fjjr-32" value="расчет&amp;nbsp;&lt;div&gt;ставки&lt;/div&gt;" style="edgeLabel;html=1;align=center;verticalAlign=middle;resizable=0;points=[];" vertex="1" connectable="0" parent="8m5L8EQ1R43HJl12Fjjr-31">
          <mxGeometry x="-0.0039" y="-2" relative="1" as="geometry">
            <mxPoint x="-28" as="offset" />
          </mxGeometry>
        </mxCell>
        <mxCell id="8m5L8EQ1R43HJl12Fjjr-33" value="Система&lt;div&gt;кол центр&lt;/div&gt;" style="rounded=1;whiteSpace=wrap;html=1;fillColor=#dae8fc;strokeColor=#6c8ebf;shadow=1;glass=1;fontStyle=1" vertex="1" parent="1">
          <mxGeometry x="340" y="260" width="120" height="60" as="geometry" />
        </mxCell>
        <mxCell id="8m5L8EQ1R43HJl12Fjjr-34" value="СМС&lt;div&gt;шлюз&lt;/div&gt;" style="rounded=1;whiteSpace=wrap;html=1;fillColor=#dae8fc;strokeColor=#6c8ebf;shadow=1;glass=1;fontStyle=1" vertex="1" parent="1">
          <mxGeometry x="870" y="420" width="120" height="60" as="geometry" />
        </mxCell>
        <mxCell id="8m5L8EQ1R43HJl12Fjjr-35" value="Бэк офис&lt;div&gt;(депозиты)&lt;/div&gt;" style="image;sketch=0;aspect=fixed;html=1;points=[];align=center;fontSize=12;image=img/lib/mscae/Person.svg;" vertex="1" parent="1">
          <mxGeometry x="810" y="240" width="37" height="50" as="geometry" />
        </mxCell>
        <mxCell id="8m5L8EQ1R43HJl12Fjjr-36" value="" style="endArrow=classic;html=1;rounded=0;entryX=0.5;entryY=0;entryDx=0;entryDy=0;exitX=0.99;exitY=0.794;exitDx=0;exitDy=0;exitPerimeter=0;" edge="1" parent="1" source="8m5L8EQ1R43HJl12Fjjr-35" target="8m5L8EQ1R43HJl12Fjjr-34">
          <mxGeometry width="50" height="50" relative="1" as="geometry">
            <mxPoint x="1010" y="400" as="sourcePoint" />
            <mxPoint x="794" y="321" as="targetPoint" />
          </mxGeometry>
        </mxCell>
        <mxCell id="8m5L8EQ1R43HJl12Fjjr-37" value="сопровождение" style="edgeLabel;html=1;align=center;verticalAlign=middle;resizable=0;points=[];" vertex="1" connectable="0" parent="8m5L8EQ1R43HJl12Fjjr-36">
          <mxGeometry x="-0.0039" y="-2" relative="1" as="geometry">
            <mxPoint as="offset" />
          </mxGeometry>
        </mxCell>
        <mxCell id="8m5L8EQ1R43HJl12Fjjr-38" value="" style="endArrow=classic;html=1;rounded=0;exitX=1;exitY=0.5;exitDx=0;exitDy=0;entryX=0;entryY=0.5;entryDx=0;entryDy=0;" edge="1" parent="1" source="8m5L8EQ1R43HJl12Fjjr-26" target="8m5L8EQ1R43HJl12Fjjr-34">
          <mxGeometry width="50" height="50" relative="1" as="geometry">
            <mxPoint x="640" y="410" as="sourcePoint" />
            <mxPoint x="844" y="571" as="targetPoint" />
          </mxGeometry>
        </mxCell>
        <mxCell id="8m5L8EQ1R43HJl12Fjjr-39" value="уведомление&lt;div&gt;ставка&lt;/div&gt;" style="edgeLabel;html=1;align=center;verticalAlign=middle;resizable=0;points=[];" vertex="1" connectable="0" parent="8m5L8EQ1R43HJl12Fjjr-38">
          <mxGeometry x="-0.0039" y="-2" relative="1" as="geometry">
            <mxPoint as="offset" />
          </mxGeometry>
        </mxCell>
        <mxCell id="8m5L8EQ1R43HJl12Fjjr-41" value="" style="endArrow=classic;html=1;rounded=0;exitX=0.957;exitY=0.82;exitDx=0;exitDy=0;exitPerimeter=0;entryX=0;entryY=0.25;entryDx=0;entryDy=0;" edge="1" parent="1" source="8m5L8EQ1R43HJl12Fjjr-13" target="8m5L8EQ1R43HJl12Fjjr-29">
          <mxGeometry width="50" height="50" relative="1" as="geometry">
            <mxPoint x="160" y="220.44999999999993" as="sourcePoint" />
            <mxPoint x="373.77700000000004" y="220" as="targetPoint" />
          </mxGeometry>
        </mxCell>
        <mxCell id="8m5L8EQ1R43HJl12Fjjr-42" value="отправка&lt;div&gt;ставки&lt;/div&gt;" style="edgeLabel;html=1;align=center;verticalAlign=middle;resizable=0;points=[];" vertex="1" connectable="0" parent="8m5L8EQ1R43HJl12Fjjr-41">
          <mxGeometry x="-0.0039" y="-2" relative="1" as="geometry">
            <mxPoint x="-33" y="-32" as="offset" />
          </mxGeometry>
        </mxCell>
        <mxCell id="8m5L8EQ1R43HJl12Fjjr-44" value="" style="endArrow=classic;html=1;rounded=0;exitX=1.018;exitY=0.607;exitDx=0;exitDy=0;exitPerimeter=0;entryX=0;entryY=0.5;entryDx=0;entryDy=0;jumpStyle=gap;" edge="1" parent="1" source="8m5L8EQ1R43HJl12Fjjr-11" target="8m5L8EQ1R43HJl12Fjjr-33">
          <mxGeometry width="50" height="50" relative="1" as="geometry">
            <mxPoint x="270" y="330" as="sourcePoint" />
            <mxPoint x="489" y="490" as="targetPoint" />
          </mxGeometry>
        </mxCell>
        <mxCell id="8m5L8EQ1R43HJl12Fjjr-45" value="регистрация&lt;div&gt;обращения&lt;/div&gt;" style="edgeLabel;html=1;align=center;verticalAlign=middle;resizable=0;points=[];" vertex="1" connectable="0" parent="8m5L8EQ1R43HJl12Fjjr-44">
          <mxGeometry x="-0.0039" y="-2" relative="1" as="geometry">
            <mxPoint x="-29" y="8" as="offset" />
          </mxGeometry>
        </mxCell>
        <mxCell id="8m5L8EQ1R43HJl12Fjjr-46" value="" style="endArrow=classic;html=1;rounded=0;exitX=0.982;exitY=0.807;exitDx=0;exitDy=0;exitPerimeter=0;entryX=0;entryY=0.5;entryDx=0;entryDy=0;jumpStyle=gap;" edge="1" parent="1" source="8m5L8EQ1R43HJl12Fjjr-11" target="8m5L8EQ1R43HJl12Fjjr-29">
          <mxGeometry width="50" height="50" relative="1" as="geometry">
            <mxPoint x="240" y="430" as="sourcePoint" />
            <mxPoint x="462" y="360" as="targetPoint" />
          </mxGeometry>
        </mxCell>
        <mxCell id="8m5L8EQ1R43HJl12Fjjr-47" value="уточнение&lt;div&gt;условий&lt;/div&gt;" style="edgeLabel;html=1;align=center;verticalAlign=middle;resizable=0;points=[];" vertex="1" connectable="0" parent="8m5L8EQ1R43HJl12Fjjr-46">
          <mxGeometry x="-0.0039" y="-2" relative="1" as="geometry">
            <mxPoint x="-27" y="-1" as="offset" />
          </mxGeometry>
        </mxCell>
        <mxCell id="8m5L8EQ1R43HJl12Fjjr-48" value="" style="endArrow=classic;html=1;rounded=0;exitX=1;exitY=0.687;exitDx=0;exitDy=0;exitPerimeter=0;entryX=0;entryY=0.75;entryDx=0;entryDy=0;jumpStyle=gap;" edge="1" parent="1" source="8m5L8EQ1R43HJl12Fjjr-12" target="8m5L8EQ1R43HJl12Fjjr-29">
          <mxGeometry width="50" height="50" relative="1" as="geometry">
            <mxPoint x="270" y="390" as="sourcePoint" />
            <mxPoint x="493" y="408" as="targetPoint" />
          </mxGeometry>
        </mxCell>
        <mxCell id="8m5L8EQ1R43HJl12Fjjr-49" value="запрос&amp;nbsp;&lt;div&gt;ставки&lt;/div&gt;" style="edgeLabel;html=1;align=center;verticalAlign=middle;resizable=0;points=[];" vertex="1" connectable="0" parent="8m5L8EQ1R43HJl12Fjjr-48">
          <mxGeometry x="-0.0039" y="-2" relative="1" as="geometry">
            <mxPoint x="-19" y="3" as="offset" />
          </mxGeometry>
        </mxCell>
        <mxCell id="8m5L8EQ1R43HJl12Fjjr-50" value="" style="endArrow=classic;html=1;rounded=0;exitX=1.081;exitY=0.8;exitDx=0;exitDy=0;exitPerimeter=0;entryX=-0.004;entryY=0.799;entryDx=0;entryDy=0;jumpStyle=gap;entryPerimeter=0;" edge="1" parent="1" source="8m5L8EQ1R43HJl12Fjjr-12" target="8m5L8EQ1R43HJl12Fjjr-26">
          <mxGeometry width="50" height="50" relative="1" as="geometry">
            <mxPoint x="260" y="529" as="sourcePoint" />
            <mxPoint x="483" y="430" as="targetPoint" />
          </mxGeometry>
        </mxCell>
        <mxCell id="8m5L8EQ1R43HJl12Fjjr-51" value="оформление&lt;div&gt;дипозита&lt;/div&gt;" style="edgeLabel;html=1;align=center;verticalAlign=middle;resizable=0;points=[];" vertex="1" connectable="0" parent="8m5L8EQ1R43HJl12Fjjr-50">
          <mxGeometry x="-0.0039" y="-2" relative="1" as="geometry">
            <mxPoint x="-64" y="-1" as="offset" />
          </mxGeometry>
        </mxCell>
        <mxCell id="8m5L8EQ1R43HJl12Fjjr-52" value="" style="endArrow=classic;html=1;rounded=0;exitX=1;exitY=0.5;exitDx=0;exitDy=0;entryX=0.25;entryY=0;entryDx=0;entryDy=0;" edge="1" parent="1" source="8m5L8EQ1R43HJl12Fjjr-33" target="8m5L8EQ1R43HJl12Fjjr-26">
          <mxGeometry width="50" height="50" relative="1" as="geometry">
            <mxPoint x="590" y="320" as="sourcePoint" />
            <mxPoint x="774" y="701" as="targetPoint" />
          </mxGeometry>
        </mxCell>
        <mxCell id="8m5L8EQ1R43HJl12Fjjr-53" value="обработка&lt;div&gt;обращений&lt;/div&gt;" style="edgeLabel;html=1;align=center;verticalAlign=middle;resizable=0;points=[];" vertex="1" connectable="0" parent="8m5L8EQ1R43HJl12Fjjr-52">
          <mxGeometry x="-0.0039" y="-2" relative="1" as="geometry">
            <mxPoint as="offset" />
          </mxGeometry>
        </mxCell>
        <mxCell id="8m5L8EQ1R43HJl12Fjjr-54" value="" style="endArrow=classic;html=1;rounded=0;exitX=1.004;exitY=0.587;exitDx=0;exitDy=0;entryX=-0.004;entryY=0.369;entryDx=0;entryDy=0;exitPerimeter=0;entryPerimeter=0;" edge="1" parent="1" source="8m5L8EQ1R43HJl12Fjjr-29" target="8m5L8EQ1R43HJl12Fjjr-26">
          <mxGeometry width="50" height="50" relative="1" as="geometry">
            <mxPoint x="590" y="390" as="sourcePoint" />
            <mxPoint x="750" y="520" as="targetPoint" />
          </mxGeometry>
        </mxCell>
        <mxCell id="8m5L8EQ1R43HJl12Fjjr-55" value="ответ&lt;div&gt;по ставке&lt;/div&gt;" style="edgeLabel;html=1;align=center;verticalAlign=middle;resizable=0;points=[];" vertex="1" connectable="0" parent="8m5L8EQ1R43HJl12Fjjr-54">
          <mxGeometry x="-0.0039" y="-2" relative="1" as="geometry">
            <mxPoint as="offset" />
          </mxGeometry>
        </mxCell>
        <mxCell id="8m5L8EQ1R43HJl12Fjjr-56" value="Excel&lt;div&gt;(кредиты)&lt;/div&gt;" style="rounded=1;whiteSpace=wrap;html=1;fillColor=#dae8fc;strokeColor=#6c8ebf;shadow=1;glass=1;fontStyle=1" vertex="1" parent="1">
          <mxGeometry x="340" y="570" width="120" height="60" as="geometry" />
        </mxCell>
        <mxCell id="8m5L8EQ1R43HJl12Fjjr-57" value="" style="endArrow=classic;html=1;rounded=0;jumpStyle=gap;entryX=0;entryY=0.5;entryDx=0;entryDy=0;exitX=0.985;exitY=0.734;exitDx=0;exitDy=0;exitPerimeter=0;" edge="1" parent="1" source="8m5L8EQ1R43HJl12Fjjr-14" target="8m5L8EQ1R43HJl12Fjjr-56">
          <mxGeometry width="50" height="50" relative="1" as="geometry">
            <mxPoint x="200" y="610" as="sourcePoint" />
            <mxPoint x="340" y="585" as="targetPoint" />
          </mxGeometry>
        </mxCell>
        <mxCell id="8m5L8EQ1R43HJl12Fjjr-58" value="оценка&lt;div&gt;рисков&lt;/div&gt;" style="edgeLabel;html=1;align=center;verticalAlign=middle;resizable=0;points=[];" vertex="1" connectable="0" parent="8m5L8EQ1R43HJl12Fjjr-57">
          <mxGeometry x="-0.0039" y="-2" relative="1" as="geometry">
            <mxPoint x="2" y="-3" as="offset" />
          </mxGeometry>
        </mxCell>
        <mxCell id="8m5L8EQ1R43HJl12Fjjr-59" value="" style="endArrow=classic;html=1;rounded=0;jumpStyle=gap;entryX=0.5;entryY=1;entryDx=0;entryDy=0;exitX=0.5;exitY=0;exitDx=0;exitDy=0;" edge="1" parent="1" source="8m5L8EQ1R43HJl12Fjjr-56" target="8m5L8EQ1R43HJl12Fjjr-29">
          <mxGeometry width="50" height="50" relative="1" as="geometry">
            <mxPoint x="300" y="627" as="sourcePoint" />
            <mxPoint x="524" y="590" as="targetPoint" />
          </mxGeometry>
        </mxCell>
        <mxCell id="8m5L8EQ1R43HJl12Fjjr-60" value="оценка&lt;div&gt;рисков&lt;/div&gt;" style="edgeLabel;html=1;align=center;verticalAlign=middle;resizable=0;points=[];" vertex="1" connectable="0" parent="8m5L8EQ1R43HJl12Fjjr-59">
          <mxGeometry x="-0.0039" y="-2" relative="1" as="geometry">
            <mxPoint x="-2" y="29" as="offset" />
          </mxGeometry>
        </mxCell>
        <mxCell id="8m5L8EQ1R43HJl12Fjjr-61" value="&lt;font style=&quot;font-size: 25px;&quot;&gt;Схема интеграций&lt;/font&gt;" style="text;html=1;align=center;verticalAlign=middle;whiteSpace=wrap;rounded=0;" vertex="1" parent="1">
          <mxGeometry x="240" y="-50" width="510" height="30" as="geometry" />
        </mxCell>
      </root>
    </mxGraphModel>
  </diagram>
</mxfile>
